<svg width="543.2329956054688px" height="122px" xmlns="http://www.w3.org/2000/svg" viewBox="-21.616497802734386 14 543.2329956054688 122" style="background:#e00" preserveAspectRatio="xMidYMid"><defs><filter id="editing-lego" x="-100%" y="-100%" width="300%" height="300%"><feFlood flood-color="#000" result="f1"></feFlood><feFlood flood-color="#ff0" result="f2"></feFlood><feMorphology operator="dilate" radius="3" in="SourceAlpha"></feMorphology><feConvolveMatrix order="5,5" divisor="1" result="cm1" kernelMatrix="0 1 1 1 0  1 0 0 0 1  1 0 0 0 1  1 0 0 0 1  0 1 1 1 0"></feConvolveMatrix><feComposite operator="in" in="f1" in2="cm1" result="c1"></feComposite><feMorphology operator="dilate" radius="3"></feMorphology><feConvolveMatrix order="5,5" divisor="1" result="cm2" kernelMatrix="0 1 1 1 0  1 0 0 0 1  1 0 0 0 1  1 0 0 0 1  0 1 1 1 0"></feConvolveMatrix><feComposite operator="in" in="f2" in2="cm2" result="c2"></feComposite><feMerge><feMergeNode in="c2"></feMergeNode><feMergeNode in="c1"></feMergeNode><feMergeNode in="SourceGraphic"></feMergeNode></feMerge></filter></defs><g filter="url(#editing-lego)"><g transform="translate(58.56509855389595, 104.44000053405762)"><path d="M26.11-42.69L26.11-42.69L26.11-42.69Q41.79-42.69 41.79-31.62L41.79-31.62L41.79-31.62Q41.79-25.54 37.89-21.89L37.89-21.89L37.89-21.89Q34.05-18.24 27.33-18.24L27.33-18.24L27.33-18.24Q24.19-18.24 21.76-20.03L21.76-20.03L21.76-20.03Q20.61-20.80 19.84-21.82L19.84-21.82L19.84-21.82Q24.51-21.82 26.98-24.67L26.98-24.67L26.98-24.67Q29.44-27.52 29.44-33.09L29.44-33.09L29.44-33.09Q29.44-38.66 23.94-38.66L23.94-38.66L22.40-38.66L22.40-38.66Q22.02-38.66 21.70-38.59L21.70-38.59L14.34 0L0.45 0L8.32-41.92L8.32-41.92Q15.17-42.56 19.14-42.62L19.14-42.62L19.14-42.62Q23.10-42.69 26.11-42.69ZM68.03-10.82L68.03-10.82L68.03-10.82Q69.63-9.73 69.63-7.33L69.63-7.33L69.63-7.33Q69.63-4.93 68.42-3.39L68.42-3.39L68.42-3.39Q67.20-1.86 65.22-0.83L65.22-0.83L65.22-0.83Q61.12 1.28 56.70 1.28L56.70 1.28L56.70 1.28Q52.29 1.28 49.70 0.32L49.70 0.32L49.70 0.32Q47.10-0.64 45.38-2.43L45.38-2.43L45.38-2.43Q41.98-5.82 41.98-12.03L41.98-12.03L41.98-12.03Q41.98-21.70 47.23-27.58L47.23-27.58L47.23-27.58Q52.86-33.92 62.66-33.92L62.66-33.92L62.66-33.92Q68.74-33.92 71.74-31.36L71.74-31.36L71.74-31.36Q73.98-29.44 73.98-26.30L73.98-26.30L73.98-26.30Q73.98-15.04 54.53-15.04L54.53-15.04L54.53-15.04Q54.27-13.38 54.27-11.97L54.27-11.97L54.27-11.97Q54.27-9.02 55.58-7.90L55.58-7.90L55.58-7.90Q56.90-6.78 59.33-6.78L59.33-6.78L59.33-6.78Q61.76-6.78 64.35-7.90L64.35-7.90L64.35-7.90Q66.94-9.02 68.03-10.82ZM54.98-17.79L54.98-17.79L54.98-17.79Q59.52-17.79 62.14-20.61L62.14-20.61L62.14-20.61Q64.77-23.30 64.77-27.58L64.77-27.58L64.77-27.58Q64.77-29.06 64.22-29.86L64.22-29.86L64.22-29.86Q63.68-30.66 62.59-30.66L62.59-30.66L62.59-30.66Q61.50-30.66 60.58-30.24L60.58-30.24L60.58-30.24Q59.65-29.82 58.69-28.42L58.69-28.42L58.69-28.42Q56.32-25.22 54.98-17.79ZM77.18-6.40L77.18-6.40L77.18-6.40Q77.18-8.13 78.08-12.48L78.08-12.48L81.47-29.76L77.70-29.76L77.95-31.68L77.95-31.68Q85.63-33.98 93.06-39.62L93.06-39.62L96.13-39.62L94.59-32.64L99.58-32.64L99.01-29.76L94.08-29.76L90.82-12.48L90.82-12.48Q89.98-8.51 89.98-7.17L89.98-7.17L89.98-7.17Q89.98-4.10 92.67-3.46L92.67-3.46L92.67-3.46Q92.03-1.28 89.73 0L89.73 0L89.73 0Q87.42 1.28 84.16 1.28L84.16 1.28L84.16 1.28Q80.90 1.28 79.04-0.77L79.04-0.77L79.04-0.77Q77.18-2.82 77.18-6.40ZM118.40-22.46L118.40-22.46L118.40-22.46Q119.30-24.83 119.30-26.88L119.30-26.88L119.30-26.88Q119.30-30.66 116.22-30.66L116.22-30.66L116.22-30.66Q114.62-30.66 113.31-29.22L113.31-29.22L113.31-29.22Q112-27.78 112-25.98L112-25.98L112-25.98Q112-24.70 113.02-23.68L113.02-23.68L113.02-23.68Q114.50-22.27 118.27-19.97L118.27-19.97L118.27-19.97Q122.05-17.66 123.49-15.78L123.49-15.78L123.49-15.78Q124.93-13.89 124.93-11.30L124.93-11.30L124.93-11.30Q124.93-8.70 123.68-6.34L123.68-6.34L123.68-6.34Q122.43-3.97 120.19-2.30L120.19-2.30L120.19-2.30Q115.39 1.28 107.71 1.28L107.71 1.28L107.71 1.28Q103.55 1.28 100.35-0.90L100.35-0.90L100.35-0.90Q97.15-3.01 97.15-5.50L97.15-5.50L97.15-5.50Q97.15-8 98.98-9.47L98.98-9.47L98.98-9.47Q100.80-10.94 103.49-10.94L103.49-10.94L103.49-10.94Q106.18-10.94 107.84-9.92L107.84-9.92L107.84-9.92Q107.01-7.81 107.01-6.40L107.01-6.40L107.01-6.40Q107.01-2.18 110.59-2.18L110.59-2.18L110.59-2.18Q112.13-2.18 113.15-3.14L113.15-3.14L113.15-3.14Q114.18-4.10 114.18-5.76L114.18-5.76L114.18-5.76Q114.18-9.02 108.67-12.48L108.67-12.48L108.67-12.48Q104.19-15.42 103.17-16.58L103.17-16.58L103.17-16.58Q101.44-18.62 101.44-21.18L101.44-21.18L101.44-21.18Q101.44-23.74 102.66-26.18L102.66-26.18L102.66-26.18Q103.87-28.61 106.11-30.34L106.11-30.34L106.11-30.34Q110.78-33.92 118.91-33.92L118.91-33.92L118.91-33.92Q123.07-33.92 125.54-32.26L125.54-32.26L125.54-32.26Q128-30.59 128-27.78L128-27.78L128-27.78Q128-24.96 126.30-23.36L126.30-23.36L126.30-23.36Q124.61-21.76 121.54-21.76L121.54-21.76L121.54-21.76Q119.42-21.76 118.40-22.46ZM162.56-7.10L162.56-7.10L162.56-7.10Q162.56-4.29 165.44-3.46L165.44-3.46L165.44-3.46Q164.74-1.09 161.98 0.19L161.98 0.19L161.98 0.19Q159.68 1.28 157.15 1.28L157.15 1.28L157.15 1.28Q154.62 1.28 153.31 0.61L153.31 0.61L153.31 0.61Q152-0.06 151.30-1.15L151.30-1.15L151.30-1.15Q150.14-2.82 150.14-5.95L150.14-5.95L150.14-5.95Q150.14-7.81 151.17-12.93L151.17-12.93L152.06-17.79L152.06-17.79Q153.15-23.36 153.15-25.41L153.15-25.41L153.15-25.41Q153.15-28.99 151.17-28.99L151.17-28.99L151.17-28.99Q148.67-28.99 147.07-25.34L147.07-25.34L147.07-25.34Q146.43-23.94 145.98-21.82L145.98-21.82L141.63 0L128.77 1.28L137.79-44.80L150.66-46.08L150.14-43.52L150.14-43.52Q148.35-33.66 146.82-30.34L146.82-30.34L146.82-30.34Q150.40-33.92 156.99-33.92L156.99-33.92L156.99-33.92Q163.97-33.92 165.25-29.31L165.25-29.31L165.25-29.31Q165.70-27.84 165.70-26.56L165.70-26.56L165.70-26.56Q165.70-25.28 165.60-24.29L165.60-24.29L165.60-24.29Q165.50-23.30 165.18-21.50L165.18-21.50L164.35-16.90L162.88-9.66L162.88-9.66Q162.56-8.19 162.56-7.10ZM184.58 1.28L184.58 1.28L184.58 1.28Q170.50 1.28 170.50-11.97L170.50-11.97L170.50-11.97Q170.50-21.38 175.68-27.46L175.68-27.46L175.68-27.46Q181.18-33.92 190.72-33.92L190.72-33.92L190.72-33.92Q197.63-33.92 201.15-30.72L201.15-30.72L201.15-30.72Q204.67-27.52 204.67-20.80L204.67-20.80L204.67-20.80Q204.67-10.56 199.17-4.61L199.17-4.61L199.17-4.61Q193.79 1.28 184.58 1.28ZM186.24-26.56L186.24-26.56L186.24-26.56Q185.47-24.83 184.86-22.24L184.86-22.24L184.86-22.24Q184.26-19.65 183.49-15.55L183.49-15.55L183.49-15.55Q182.72-11.46 182.72-6.40L182.72-6.40L182.72-6.40Q182.72-4.74 183.26-3.65L183.26-3.65L183.26-3.65Q183.81-2.56 185.28-2.56L185.28-2.56L185.28-2.56Q186.75-2.56 187.68-3.26L187.68-3.26L187.68-3.26Q188.61-3.97 189.31-5.63L189.31-5.63L189.31-5.63Q190.59-8.58 191.62-14.05L191.62-14.05L191.62-14.05Q192.64-19.52 192.74-21.89L192.74-21.89L192.74-21.89Q192.83-24.26 192.83-26.02L192.83-26.02L192.83-26.02Q192.83-27.78 192.32-28.93L192.32-28.93L192.32-28.93Q191.81-30.08 190.37-30.08L190.37-30.08L190.37-30.08Q188.93-30.08 187.97-29.18L187.97-29.18L187.97-29.18Q187.01-28.29 186.24-26.56ZM238.27-4.38L238.27-4.38L238.27-4.38Q235.58-1.66 231.90-0.19L231.90-0.19L231.90-0.19Q228.22 1.28 224.58 1.28L224.58 1.28L224.58 1.28Q220.93 1.28 219.65 0.64L219.65 0.64L217.66 11.52L204.67 12.80L213.50-32.64L223.94-33.73L223.10-29.31L223.10-29.31Q225.79-33.86 231.36-33.86L231.36-33.86L231.36-33.86Q237.63-33.86 240.96-29.82L240.96-29.82L240.96-29.82Q243.90-26.18 243.90-20.61L243.90-20.61L243.90-20.61Q243.90-15.04 242.43-11.07L242.43-11.07L242.43-11.07Q240.96-7.10 238.27-4.38ZM223.81-22.34L220.42-3.58L220.42-3.58Q221.76-2.43 223.42-2.43L223.42-2.43L223.42-2.43Q225.09-2.43 226.05-3.07L226.05-3.07L226.05-3.07Q227.01-3.71 227.71-4.99L227.71-4.99L227.71-4.99Q229.63-8.45 231.17-18.94L231.17-18.94L231.17-18.94Q231.62-22.02 231.62-25.02L231.62-25.02L231.62-25.02Q231.62-28.03 230.94-28.99L230.94-28.99L230.94-28.99Q230.27-29.95 228.99-29.95L228.99-29.95L228.99-29.95Q225.09-29.95 223.81-22.34L223.81-22.34ZM281.15-13.25L281.15-13.25L281.15-13.25Q282.82-12.03 282.82-9.44L282.82-9.44L282.82-9.44Q282.82-6.85 281.70-5.02L281.70-5.02L281.70-5.02Q280.58-3.20 278.40-1.79L278.40-1.79L278.40-1.79Q273.73 1.22 265.57 1.22L265.57 1.22L265.57 1.22Q257.41 1.22 252.96-3.04L252.96-3.04L252.96-3.04Q248.51-7.30 248.51-14.85L248.51-14.85L248.51-14.85Q248.51-25.54 254.08-33.66L254.08-33.66L254.08-33.66Q258.30-39.68 265.86-42.24L265.86-42.24L265.86-42.24Q269.76-43.52 273.60-43.52L273.60-43.52L273.60-43.52Q277.44-43.52 279.81-43.01L279.81-43.01L279.81-43.01Q282.18-42.50 283.97-41.47L283.97-41.47L283.97-41.47Q287.87-39.23 287.87-35.65L287.87-35.65L287.87-35.65Q287.87-32.38 284.80-29.95L284.80-29.95L284.80-29.95Q281.98-27.78 279.68-27.78L279.68-27.78L279.68-27.78Q277.38-27.78 276.42-28.10L276.42-28.10L276.42-28.10Q276.67-30.40 276.67-31.90L276.67-31.90L276.67-31.90Q276.67-33.41 276.61-34.50L276.61-34.50L276.61-34.50Q276.54-35.58 276.22-36.61L276.22-36.61L276.22-36.61Q275.58-38.98 273.63-38.98L273.63-38.98L273.63-38.98Q271.68-38.98 269.73-37.15L269.73-37.15L269.73-37.15Q267.78-35.33 266.11-32.26L266.11-32.26L266.11-32.26Q262.34-25.28 262.34-17.02L262.34-17.02L262.34-17.02Q262.34-13.06 264.58-10.78L264.58-10.78L264.58-10.78Q266.82-8.51 271.62-8.51L271.62-8.51L271.62-8.51Q275.20-8.51 278.59-10.88L278.59-10.88L278.59-10.88Q280.06-11.90 281.15-13.25ZM302.08 1.28L302.08 1.28L302.08 1.28Q288 1.28 288-11.97L288-11.97L288-11.97Q288-21.38 293.18-27.46L293.18-27.46L293.18-27.46Q298.69-33.92 308.22-33.92L308.22-33.92L308.22-33.92Q315.14-33.92 318.66-30.72L318.66-30.72L318.66-30.72Q322.18-27.52 322.18-20.80L322.18-20.80L322.18-20.80Q322.18-10.56 316.67-4.61L316.67-4.61L316.67-4.61Q311.30 1.28 302.08 1.28ZM303.74-26.56L303.74-26.56L303.74-26.56Q302.98-24.83 302.37-22.24L302.37-22.24L302.37-22.24Q301.76-19.65 300.99-15.55L300.99-15.55L300.99-15.55Q300.22-11.46 300.22-6.40L300.22-6.40L300.22-6.40Q300.22-4.74 300.77-3.65L300.77-3.65L300.77-3.65Q301.31-2.56 302.78-2.56L302.78-2.56L302.78-2.56Q304.26-2.56 305.18-3.26L305.18-3.26L305.18-3.26Q306.11-3.97 306.82-5.63L306.82-5.63L306.82-5.63Q308.10-8.58 309.12-14.05L309.12-14.05L309.12-14.05Q310.14-19.52 310.24-21.89L310.24-21.89L310.24-21.89Q310.34-24.26 310.34-26.02L310.34-26.02L310.34-26.02Q310.34-27.78 309.82-28.93L309.82-28.93L309.82-28.93Q309.31-30.08 307.87-30.08L307.87-30.08L307.87-30.08Q306.43-30.08 305.47-29.18L305.47-29.18L305.47-29.18Q304.51-28.29 303.74-26.56ZM339.90 1.28L339.90 1.28L339.90 1.28Q325.82 1.28 325.82-11.97L325.82-11.97L325.82-11.97Q325.82-21.38 331.01-27.46L331.01-27.46L331.01-27.46Q336.51-33.92 346.05-33.92L346.05-33.92L346.05-33.92Q352.96-33.92 356.48-30.72L356.48-30.72L356.48-30.72Q360.00-27.52 360.00-20.80L360.00-20.80L360.00-20.80Q360.00-10.56 354.50-4.61L354.50-4.61L354.50-4.61Q349.12 1.28 339.90 1.28ZM341.57-26.56L341.57-26.56L341.57-26.56Q340.80-24.83 340.19-22.24L340.19-22.24L340.19-22.24Q339.58-19.65 338.82-15.55L338.82-15.55L338.82-15.55Q338.05-11.46 338.05-6.40L338.05-6.40L338.05-6.40Q338.05-4.74 338.59-3.65L338.59-3.65L338.59-3.65Q339.14-2.56 340.61-2.56L340.61-2.56L340.61-2.56Q342.08-2.56 343.01-3.26L343.01-3.26L343.01-3.26Q343.94-3.97 344.64-5.63L344.64-5.63L344.64-5.63Q345.92-8.58 346.94-14.05L346.94-14.05L346.94-14.05Q347.97-19.52 348.06-21.89L348.06-21.89L348.06-21.89Q348.16-24.26 348.16-26.02L348.16-26.02L348.16-26.02Q348.16-27.78 347.65-28.93L347.65-28.93L347.65-28.93Q347.14-30.08 345.70-30.08L345.70-30.08L345.70-30.08Q344.26-30.08 343.30-29.18L343.30-29.18L343.30-29.18Q342.34-28.29 341.57-26.56ZM379.07-3.52L379.07-3.52L379.07-3.52Q377.09 1.28 370.75 1.28L370.75 1.28L370.75 1.28Q367.55 1.28 365.50-0.96L365.50-0.96L365.50-0.96Q363.84-2.82 363.84-4.93L363.84-4.93L363.84-4.93Q363.84-9.73 366.08-20.22L366.08-20.22L370.75-44.80L383.74-46.08L377.54-13.70L377.54-13.70Q376.45-8.96 376.45-7.30L376.45-7.30L376.45-7.30Q376.45-3.65 379.07-3.52Z" fill="#fff"></path></g></g><style>text {
  font-size: 64px;
  font-family: Arial Black;
  dominant-baseline: central;
  text-anchor: middle;
}</style></svg>